Coordinates
version=1
nRows=10
nColumns=22
inDegrees=yes

Units are S.I. units (second, meters, Newtons, ...)
If the header above contains a line with 'inDegrees', this indicates whether rotational values are in degrees (yes) or radians (no).

endheader
time	pelvis_tilt	pelvis_list	pelvis_rotation	pelvis_tx	pelvis_ty	pelvis_tz	hip_flexion_r	hip_adduction_r	hip_rotation_r	knee_angle_r	ankle_angle_r	subtalar_angle_r	hip_flexion_l	hip_adduction_l	hip_rotation_l	knee_angle_l	ankle_angle_l	subtalar_angle_l	lumbar_extension	lumbar_bending	lumbar_rotation
      4.39000000	    -12.09575370	     -2.40015509	     -2.95655398	      0.16953166	      0.98120723	      0.32283222	      7.07751813	      2.70515345	      2.72416185	    -31.71625043	     11.53200557	     13.41506889	     27.07023290	     -0.22071248	     -2.41493236	    -21.09648174	     12.63280681	     -3.77445691	      4.16198827	      4.33143642	      5.15275060
      4.40000000	    -12.16482903	     -2.34259711	     -2.88738886	      0.17351740	      0.98113622	      0.32131307	      7.33005879	      2.50987361	      2.72259167	    -32.39488203	     11.33878399	     13.83097953	     26.90315684	     -0.04289836	     -2.41862531	    -21.10871250	     12.83678546	     -3.79152095	      4.29027489	      4.21969931	      5.16571693
      4.41000000	    -12.23725227	     -2.32966147	     -2.81696839	      0.17743804	      0.98103447	      0.31979878	      7.59207372	      2.35803028	      2.68714285	    -33.07166701	     11.10288245	     14.22408148	     26.75438903	      0.08658825	     -2.42330678	    -21.14185505	     13.09817373	     -3.79284257	      4.41551876	      4.16737869	      5.15829933
      4.42000000	    -12.29578767	     -2.27832359	     -2.75692183	      0.18127739	      0.98092209	      0.31831815	      7.87213134	      2.16233142	      2.63038361	    -33.79351232	     10.86190938	     14.44096557	     26.59232356	      0.25046769	     -2.43260804	    -21.16842445	     13.31750236	     -3.78645029	      4.51706012	      4.06481389	      5.16312139
      4.43000000	    -12.37504943	     -2.23739460	     -2.70555532	      0.18500868	      0.98073991	      0.31687108	      8.20088655	      1.97676215	      2.55266567	    -34.54833887	     10.61309634	     14.74083743	     26.47226290	      0.39708160	     -2.43997289	    -21.22162217	     13.54820384	     -3.77992346	      4.63417312	      3.97598742	      5.16471940
      4.44000000	    -12.45163801	     -2.19663611	     -2.65975931	      0.18864238	      0.98053147	      0.31544208	      8.55202974	      1.78909940	      2.45443586	    -35.33202480	     10.34998004	     15.07873235	     26.36008036	      0.54103822	     -2.44659502	    -21.28456104	     13.77677028	     -3.77618835	      4.73731712	      3.88881686	      5.17136907
      4.45000000	    -12.52684887	     -2.15109164	     -2.62776443	      0.19218574	      0.98030119	      0.31405198	      8.92951032	      1.59243281	      2.33597692	    -36.14855693	     10.07073891	     15.46219963	     26.25095369	      0.68276918	     -2.45908201	    -21.34607259	     14.00234494	     -3.77640551	      4.83141009	      3.79668522	      5.18016141
      4.46000000	    -12.59970868	     -2.09747265	     -2.60936461	      0.19563134	      0.98004765	      0.31269643	      9.33528041	      1.38189568	      2.19813946	    -36.99982831	      9.76910448	     15.88722347	     26.14336375	      0.82695807	     -2.47946227	    -21.40526382	     14.22789785	     -3.77924688	      4.91387488	      3.69648686	      5.19613030
      4.47000000	    -12.68423244	     -2.06198712	     -2.60314405	      0.19894508	      0.97974068	      0.31136931	      9.78956403	      1.18086856	      2.03309007	    -37.89530084	      9.47264355	     16.46843427	     26.06685990	      0.94354511	     -2.51561633	    -21.48739479	     14.47267778	     -3.78379098	      4.99539885	      3.62244969	      5.21540766
      4.48000000	    -12.73926553	     -1.96337339	     -2.62394195	      0.20218068	      0.97947474	      0.31009488	     10.25729560	      0.90713281	      1.87813718	    -38.84779155	      9.11980572	     16.83078116	     25.92824863	      1.11931727	     -2.54898156	    -21.50232588	     14.66373574	     -3.77860094	      5.03545217	      3.47293973	      5.25734954
